<svg width="12" height="20" viewBox="0 0 12 20" fill="none" xmlns="http://www.w3.org/2000/svg">
<path d="M9.96 0C10.3556 0 10.7422 0.117298 11.0711 0.337061C11.4 0.556823 11.6564 0.869181 11.8078 1.23463C11.9591 1.60009 11.9987 2.00222 11.9216 2.39018C11.8444 2.77814 11.6539 3.13451 11.3742 3.41421C11.0945 3.69392 10.7381 3.8844 10.3502 3.96157C9.96222 4.03874 9.56009 3.99913 9.19463 3.84776C8.82918 3.69638 8.51682 3.44004 8.29706 3.11114C8.0773 2.78224 7.96 2.39556 7.96 2C7.96 1.46957 8.17071 0.960859 8.54579 0.585786C8.92086 0.210714 9.42957 0 9.96 0ZM6 1C6.29667 1 6.58668 1.08797 6.83335 1.2528C7.08003 1.41762 7.27229 1.65189 7.38582 1.92597C7.49935 2.20006 7.52906 2.50166 7.47118 2.79264C7.4133 3.08361 7.27044 3.35088 7.06066 3.56066C6.85088 3.77044 6.58361 3.9133 6.29264 3.97118C6.00166 4.02906 5.70006 3.99935 5.42597 3.88582C5.15189 3.77229 4.91762 3.58003 4.7528 3.33336C4.58797 3.08668 4.5 2.79667 4.5 2.5C4.5 2.10218 4.65804 1.72064 4.93934 1.43934C5.22064 1.15804 5.60218 1 6 1ZM3.05 2.5C3.24778 2.5 3.44112 2.55865 3.60557 2.66853C3.77002 2.77841 3.89819 2.93459 3.97388 3.11732C4.04957 3.30004 4.06937 3.50111 4.03079 3.69509C3.9922 3.88907 3.89696 4.06725 3.75711 4.20711C3.61725 4.34696 3.43907 4.4422 3.24509 4.48079C3.05111 4.51937 2.85004 4.49957 2.66732 4.42388C2.48459 4.34819 2.32841 4.22002 2.21853 4.05557C2.10865 3.89112 2.05 3.69778 2.05 3.5C2.05 3.23478 2.15536 2.98043 2.34289 2.79289C2.53043 2.60536 2.78478 2.5 3.05 2.5ZM1 4C1.19778 4 1.39112 4.05865 1.55557 4.16853C1.72002 4.27841 1.84819 4.43459 1.92388 4.61732C1.99957 4.80004 2.01937 5.00111 1.98079 5.19509C1.9422 5.38907 1.84696 5.56725 1.70711 5.70711C1.56725 5.84696 1.38907 5.9422 1.19509 5.98079C1.00111 6.01937 0.800043 5.99957 0.617317 5.92388C0.434591 5.84819 0.278412 5.72002 0.16853 5.55557C0.0586491 5.39112 0 5.19778 0 5C0 4.73478 0.105357 4.48043 0.292893 4.29289C0.48043 4.10536 0.734784 4 1 4ZM8.49 10C8.83885 9.99771 9.18335 9.92243 9.50136 9.77901C9.81937 9.63559 10.1038 9.42719 10.3365 9.16724C10.5691 8.90728 10.7448 8.60151 10.8522 8.2696C10.9596 7.93768 10.9963 7.58696 10.96 7.24C10.8724 6.61283 10.5589 6.03919 10.0783 5.62676C9.59776 5.21434 8.98321 4.99147 8.35 5H5.87C4.5563 4.99841 3.27839 5.42801 2.23244 6.22286C1.18649 7.01771 0.430318 8.13387 0.0799999 9.4C-0.0537613 9.86462 -0.0146838 10.362 0.19 10.8C0.636925 11.7228 0.869389 12.7347 0.87 13.76C0.838383 14.7281 0.603284 15.6787 0.18 16.55C0.051883 16.8284 -0.00770754 17.1335 0.00621033 17.4397C0.0201282 17.7459 0.10715 18.0443 0.26 18.31C0.660979 18.9486 1.25138 19.4461 1.94878 19.7329C2.64617 20.0198 3.41573 20.0817 4.15 19.91C4.69454 19.7841 5.20101 19.5296 5.62703 19.1678C6.05305 18.806 6.38623 18.3474 6.59869 17.8305C6.81115 17.3135 6.89672 16.7532 6.84824 16.1964C6.79975 15.6396 6.61862 15.1025 6.32 14.63C6.0056 14.146 5.84843 13.5767 5.87 13C5.87 13 5.64 10 8.49 10Z" fill="#4CAF50"/>
</svg>
