<svg width="23" height="23" viewBox="0 0 23 23" fill="none" xmlns="http://www.w3.org/2000/svg">
<path d="M15.15 1.00024C11.35 2.80024 11.35 8.00024 11.35 8.00024M11.35 8.00024C11.35 8.00024 11.35 2.80024 7.55002 1.00024M11.35 8.00024V19.0002" stroke="#4CAF50" stroke-width="2" stroke-linecap="round" stroke-linejoin="round"/>
<path d="M19.35 4.00024C15.85 4.00024 12.85 7.90024 11.35 10.3002C9.85001 7.90024 6.85001 4.00024 3.35001 4.00024C2.81957 4.00024 2.31087 4.21096 1.93579 4.58603C1.56072 4.9611 1.35001 5.46981 1.35001 6.00024C1.35001 8.30024 1.95001 10.4002 2.85001 11.6002C3.35001 12.5002 4.25001 13.0002 5.35001 13.0002H7.35001C6.45001 13.4002 5.25001 13.9002 4.75001 14.5002C3.15001 16.1002 3.85001 17.9002 5.45001 19.4002C7.05001 21.0002 8.85001 21.7002 10.35 20.1002C10.65 19.8002 11.35 19.0002 11.35 19.0002C11.35 19.0002 11.95 19.8002 12.35 20.1002C13.95 21.7002 15.75 21.0002 17.25 19.4002C18.85 17.8002 19.55 16.0002 17.95 14.5002C17.45 14.0002 16.25 13.4002 15.35 13.0002H17.35C18.45 13.0002 19.35 12.5002 19.85 11.6002C20.75 10.4002 21.35 8.30024 21.35 6.00024C21.35 5.46981 21.1393 4.9611 20.7642 4.58603C20.3891 4.21096 19.8804 4.00024 19.35 4.00024Z" stroke="#4CAF50" stroke-width="2.7" stroke-linecap="round" stroke-linejoin="round"/>
</svg>
