<svg width="22" height="20" viewBox="0 0 22 20" fill="none" xmlns="http://www.w3.org/2000/svg">
<path d="M10.7 16.15L10.6 16.25L10.49 16.15C5.74001 11.84 2.60001 8.98998 2.60001 6.09998C2.60001 4.09998 4.10001 2.59998 6.10001 2.59998C7.64001 2.59998 9.14001 3.59998 9.67001 4.95998H11.53C12.06 3.59998 13.56 2.59998 15.1 2.59998C17.1 2.59998 18.6 4.09998 18.6 6.09998C18.6 8.98998 15.46 11.84 10.7 16.15ZM15.1 0.599976C13.36 0.599976 11.69 1.40998 10.6 2.67998C9.51001 1.40998 7.84001 0.599976 6.10001 0.599976C3.02001 0.599976 0.600006 3.00998 0.600006 6.09998C0.600006 9.86998 4.00001 12.96 9.15001 17.63L10.6 18.95L12.05 17.63C17.2 12.96 20.6 9.86998 20.6 6.09998C20.6 3.00998 18.18 0.599976 15.1 0.599976Z" fill="#4CAF50" stroke="#4CAF50" stroke-width="1.2"/>
</svg>
